<?xml version="1.0" encoding="UTF-8" standalone="no"?>
<!-- Created with Inkscape (http://www.inkscape.org/) -->

<svg
   width="41.958813mm"
   height="63.023636mm"
   viewBox="0 0 41.958813 63.023636"
   version="1.1"
   id="svg5"
   xml:space="preserve"
   sodipodi:docname="example_mesh_ref_GIMP.svg"
   inkscape:version="1.2.2 (b0a8486541, 2022-12-01)"
   xmlns:inkscape="http://www.inkscape.org/namespaces/inkscape"
   xmlns:sodipodi="http://sodipodi.sourceforge.net/DTD/sodipodi-0.dtd"
   xmlns="http://www.w3.org/2000/svg"
   xmlns:svg="http://www.w3.org/2000/svg"><sodipodi:namedview
     id="namedview7"
     pagecolor="#ffffff"
     bordercolor="#000000"
     borderopacity="0.25"
     inkscape:showpageshadow="2"
     inkscape:pageopacity="0.0"
     inkscape:pagecheckerboard="0"
     inkscape:deskcolor="#d1d1d1"
     inkscape:document-units="mm"
     showgrid="false"
     inkscape:zoom="2"
     inkscape:cx="172"
     inkscape:cy="156.75"
     inkscape:window-width="1854"
     inkscape:window-height="1011"
     inkscape:window-x="66"
     inkscape:window-y="32"
     inkscape:window-maximized="1"
     inkscape:current-layer="g15680"
     showguides="true"><inkscape:page
       x="0"
       y="0"
       width="41.958813"
       height="63.023636"
       id="page1152"
       inkscape:export-filename="example_mesh_ref_GIMP.png"
       inkscape:export-xdpi="614.53381"
       inkscape:export-ydpi="614.53381" /><inkscape:page
       x="209.68054"
       y="-50.155888"
       width="39.329926"
       height="31.998327"
       id="page1154" /><sodipodi:guide
       position="32.005612,52.928942"
       orientation="0.69744707,0.7166363"
       id="guide12827"
       inkscape:locked="false" /><sodipodi:guide
       position="40.102275,51.634962"
       orientation="0,-1"
       id="guide13038"
       inkscape:locked="false" /></sodipodi:namedview><defs
     id="defs2"><defs
   id="id-ffe6bafd-173a-453f-8d17-b87ef3f4fc72">
    <g
   id="id-0c022760-c674-4da5-b7f8-5ce382b2af87">
      <g
   id="id-fc9b28fd-17c2-489e-b6ff-da759a6d05c7">
        <path
   d="m 4.578125,-3.1875 c 0,-0.796875 -0.046875,-1.59375 -0.390625,-2.328125 -0.453125,-0.96875 -1.28125,-1.125 -1.6875,-1.125 -0.609375,0 -1.328125,0.265625 -1.75,1.1875 -0.3125,0.6875 -0.359375,1.46875 -0.359375,2.265625 0,0.75 0.03125,1.640625 0.453125,2.40625 0.421875,0.796875 1.15625,1 1.640625,1 0.53125,0 1.296875,-0.203125 1.734375,-1.15625 0.3125,-0.6875 0.359375,-1.46875 0.359375,-2.25 z M 2.484375,0 C 2.09375,0 1.5,-0.25 1.328125,-1.203125 1.21875,-1.796875 1.21875,-2.71875 1.21875,-3.3125 c 0,-0.640625 0,-1.296875 0.078125,-1.828125 0.1875,-1.1875 0.9375,-1.28125 1.1875,-1.28125 0.328125,0 0.984375,0.1875 1.171875,1.171875 0.109375,0.5625 0.109375,1.3125 0.109375,1.9375 0,0.75 0,1.421875 -0.109375,2.0625 C 3.5,-0.296875 2.9375,0 2.484375,0 Z m 0,0"
   id="id-942f8551-b6a1-45a8-a237-4219e77ba015" />
      </g>
      <g
   id="id-4047abac-c661-40f9-ad00-580428a47825">
        <path
   d="m 1.625,-4.5625 c -0.453125,-0.296875 -0.5,-0.625 -0.5,-0.796875 0,-0.609375 0.65625,-1.03125 1.359375,-1.03125 0.71875,0 1.359375,0.515625 1.359375,1.234375 0,0.578125 -0.390625,1.046875 -0.984375,1.390625 z m 1.453125,0.953125 C 3.796875,-3.984375 4.28125,-4.5 4.28125,-5.15625 c 0,-0.921875 -0.875,-1.484375 -1.78125,-1.484375 -1,0 -1.8125,0.734375 -1.8125,1.671875 0,0.171875 0.015625,0.625 0.4375,1.09375 0.109375,0.109375 0.484375,0.359375 0.734375,0.53125 C 1.28125,-3.046875 0.421875,-2.5 0.421875,-1.5 c 0,1.046875 1.015625,1.71875 2.0625,1.71875 1.125,0 2.078125,-0.828125 2.078125,-1.890625 0,-0.359375 -0.109375,-0.8125 -0.5,-1.234375 C 3.875,-3.109375 3.71875,-3.203125 3.078125,-3.609375 Z m -1,0.421875 1.234375,0.78125 c 0.28125,0.1875 0.75,0.484375 0.75,1.09375 0,0.734375 -0.75,1.25 -1.5625,1.25 -0.859375,0 -1.578125,-0.609375 -1.578125,-1.4375 0,-0.578125 0.3125,-1.21875 1.15625,-1.6875 z m 0,0"
   id="id-6ff139f0-e753-4a06-9ce1-0697aaf8278f" />
      </g>
      <g
   id="id-3a87ac24-246b-4257-bc41-29f48d426239">
        <path
   d="m 1.90625,-0.53125 c 0,-0.28125 -0.234375,-0.53125 -0.515625,-0.53125 -0.296875,0 -0.53125,0.25 -0.53125,0.53125 C 0.859375,-0.234375 1.09375,0 1.390625,0 1.671875,0 1.90625,-0.234375 1.90625,-0.53125 Z m 0,0"
   id="id-0671f66f-d9c8-473c-aec9-efa2f09567ba" />
      </g>
    </g>
  </defs>
  
  
  

    
    
    
      
      
      </defs><g
     inkscape:label="Layer 1"
     inkscape:groupmode="layer"
     id="layer1"
     transform="translate(-10.319452,-50.155886)" /><g
     id="g15680"
     transform="translate(-15.921088,-50.531273)"><g
       id="g19363"
       inkscape:export-filename="example_mesh_ref_GIMP.png"
       inkscape:export-xdpi="605.35553"
       inkscape:export-ydpi="605.35553"><g
         id="g18513"
         transform="translate(-56.611993,4.5234363)"><path
           style="fill:none;fill-opacity:1;stroke:#ff0000;stroke-width:0.3;stroke-dasharray:none;stroke-opacity:1"
           d="M 87.767972,103.14374 V 52.397103"
           id="path15767-6-5-0-0" /></g><circle
         style="fill:#ff0000;fill-opacity:1;stroke:#000000;stroke-width:0.177;stroke-dasharray:none;stroke-opacity:1"
         id="path13070-06"
         cx="51.044525"
         cy="76.548935"
         r="0.66145831" /><circle
         style="fill:#ff0000;fill-opacity:1;stroke:#000000;stroke-width:0.177;stroke-dasharray:none;stroke-opacity:1"
         id="path13070-1"
         cx="25.181505"
         cy="76.681229"
         r="0.66145831" /><circle
         style="fill:#ff0000;fill-opacity:1;stroke:#000000;stroke-width:0.177;stroke-dasharray:none;stroke-opacity:1"
         id="path13070-0"
         cx="50.994915"
         cy="101.98201"
         r="0.66145831" /><path
         d="M 56.272468,109.49631 H 31.809233"
         style="fill:none;stroke:#081aac;stroke-width:0.29619;stroke-linecap:butt;stroke-linejoin:miter;stroke-miterlimit:4;stroke-dasharray:none;stroke-opacity:1"
         id="path170" /><path
         d="m 56.808271,109.49631 -0.802313,0.46304 v -0.92887 z"
         style="fill:#081aac;fill-opacity:1;fill-rule:evenodd;stroke:#081aac;stroke-width:0.123619;stroke-linecap:butt;stroke-linejoin:miter;stroke-miterlimit:4;stroke-dasharray:none;stroke-opacity:1"
         id="path174" /><path
         d="m 31.27343,109.49631 0.802313,-0.46583 v 0.92887 z"
         style="fill:#081aac;fill-opacity:1;fill-rule:evenodd;stroke:#081aac;stroke-width:0.123619;stroke-linecap:butt;stroke-linejoin:miter;stroke-miterlimit:4;stroke-dasharray:none;stroke-opacity:1"
         id="path178" /><path
         d="M 22.823051,101.29973 V 51.796707"
         style="fill:none;stroke:#081aac;stroke-width:0.29619;stroke-linecap:butt;stroke-linejoin:miter;stroke-miterlimit:4;stroke-dasharray:none;stroke-opacity:1"
         id="path182" /><path
         d="m 22.823051,101.83599 -0.462043,-0.80334 h 0.926869 z"
         style="fill:#081aac;fill-opacity:1;fill-rule:evenodd;stroke:#081aac;stroke-width:0.123619;stroke-linecap:butt;stroke-linejoin:miter;stroke-miterlimit:4;stroke-dasharray:none;stroke-opacity:1"
         id="path186" /><path
         d="m 22.823051,51.259752 0.464826,0.80334 h -0.926869 z"
         style="fill:#081aac;fill-opacity:1;fill-rule:evenodd;stroke:#081aac;stroke-width:0.123619;stroke-linecap:butt;stroke-linejoin:miter;stroke-miterlimit:4;stroke-dasharray:none;stroke-opacity:1"
         id="path190" /><path
         d="m 43.97544,111.08416 c 0,0 0,-0.0383 -0.04314,-0.0383 -0.0842,0 -0.339575,0.0279 -0.434905,0.0383 -0.02714,0 -0.06819,0.006 -0.06819,0.0656 0,0.046 0.03549,0.046 0.0842,0.046 0.173953,0 0.179535,0.0223 0.179535,0.06 l -0.01105,0.0739 -0.513535,2.0481 c -0.01598,0.0495 -0.01598,0.0544 -0.01598,0.0767 0,0.0844 0.07306,0.10042 0.105764,0.10042 0.05428,0 0.111327,-0.0432 0.128034,-0.0955 l 0.0675,-0.26639 0.07653,-0.31868 c 0.02158,-0.0823 0.04592,-0.16109 0.06263,-0.23989 0.0049,-0.0216 0.03757,-0.13877 0.03757,-0.16108 0.01105,-0.0328 0.122472,-0.22873 0.244939,-0.32915 0.07862,-0.0544 0.184408,-0.12273 0.339575,-0.12273 0.149613,0 0.19066,0.12273 0.19066,0.25034 0,0.19107 -0.133596,0.58019 -0.2178,0.79846 -0.02714,0.0788 -0.0515,0.12273 -0.0515,0.19595 0,0.16597 0.130125,0.2887 0.29643,0.2887 0.334009,0 0.462044,-0.51743 0.462044,-0.54741 0,-0.0383 -0.02714,-0.0383 -0.03827,-0.0383 -0.04105,0 -0.04105,0.0111 -0.05706,0.0683 -0.0487,0.18759 -0.165609,0.44142 -0.36184,0.44142 -0.05985,0 -0.08421,-0.0356 -0.08421,-0.11716 0,-0.09 0.02992,-0.17433 0.06263,-0.25383 0.05428,-0.15482 0.2178,-0.58019 0.2178,-0.78381 0,-0.22943 -0.139159,-0.38145 -0.407767,-0.38145 -0.223366,0 -0.394546,0.11156 -0.527452,0.27475 z"
         style="fill:#000000;fill-opacity:1;fill-rule:nonzero;stroke:none;stroke-width:0.696595"
         id="path1140" /><path
         d="m 17.394006,80.046393 c 0,-0.280897 -0.01649,-0.561793 -0.137399,-0.820659 -0.159383,-0.341482 -0.450669,-0.39656 -0.593564,-0.39656 -0.214342,0 -0.467157,0.09363 -0.615548,0.418591 -0.109919,0.242342 -0.126407,0.517731 -0.126407,0.798628 0,0.264373 0.01099,0.578316 0.159383,0.848197 0.148391,0.280897 0.406701,0.352498 0.577076,0.352498 0.186863,0 0.456165,-0.0716 0.610052,-0.407576 0.10992,-0.242342 0.126407,-0.51773 0.126407,-0.793119 z m -0.736459,1.123586 c -0.137399,0 -0.346245,-0.08812 -0.406701,-0.424099 -0.03847,-0.209295 -0.03847,-0.534254 -0.03847,-0.743549 0,-0.225819 0,-0.457146 0.02748,-0.64441 0.06595,-0.418591 0.329758,-0.451638 0.417693,-0.451638 0.115416,0 0.346246,0.06609 0.412198,0.413083 0.03847,0.19828 0.03847,0.462654 0.03847,0.682965 0,0.264373 0,0.501207 -0.03847,0.727026 -0.05496,0.335974 -0.252815,0.440622 -0.412198,0.440622 z m 0,0"
         id="id-bc466db8-2a25-4643-9d19-46b59c36e522"
         style="fill:#000000;fill-opacity:1;stroke-width:0.352119" /><path
         d="m 18.206574,80.982715 c 0,-0.09914 -0.08244,-0.187265 -0.181367,-0.187265 -0.104424,0 -0.186863,0.08812 -0.186863,0.187265 0,0.104647 0.08244,0.187264 0.186863,0.187264 0.09893,0 0.181367,-0.08262 0.181367,-0.187264 z m 0,0"
         id="id-785b7e0c-71d1-49f8-8f5f-f7c2d0cf467e"
         style="fill:#000000;fill-opacity:1;stroke-width:0.352119" /><path
         d="m 19.080915,79.561708 c -0.159383,-0.104647 -0.175871,-0.220311 -0.175871,-0.280896 0,-0.214803 0.230831,-0.363513 0.478149,-0.363513 0.252815,0 0.478149,0.181756 0.478149,0.435114 0,0.203788 -0.137399,0.369021 -0.346246,0.490192 z m 0.511125,0.335975 c 0.252814,-0.132187 0.423189,-0.313943 0.423189,-0.54527 0,-0.324959 -0.307774,-0.523239 -0.62654,-0.523239 -0.351741,0 -0.637532,0.258866 -0.637532,0.589332 0,0.06059 0.0055,0.220311 0.153887,0.385545 0.03847,0.03855 0.170375,0.126678 0.258311,0.187264 -0.203351,0.104648 -0.505629,0.29742 -0.505629,0.649918 0,0.369021 0.357238,0.605855 0.725467,0.605855 0.39571,0 0.730964,-0.291912 0.730964,-0.666441 0,-0.126679 -0.03847,-0.286404 -0.175871,-0.435114 -0.06595,-0.0716 -0.120912,-0.104648 -0.346246,-0.24785 z m -0.351742,0.14871 0.434181,0.275389 c 0.09893,0.06609 0.263807,0.170741 0.263807,0.385544 0,0.258865 -0.263807,0.440622 -0.549597,0.440622 -0.302278,0 -0.555092,-0.214803 -0.555092,-0.506715 0,-0.203788 0.109919,-0.429607 0.406701,-0.59484 z m 0,0"
         id="id-4c8e08ca-28e7-4860-baf3-b885780cae8e"
         style="fill:#000000;fill-opacity:1;stroke-width:0.352119" /><path
         style="fill:none;fill-opacity:1;stroke:#000000;stroke-width:0.300001;stroke-dasharray:none;stroke-opacity:1"
         d="M 56.918493,82.219273 V 107.71849"
         id="path15518" /><path
         style="fill:none;fill-opacity:1;stroke:#000000;stroke-width:0.300001;stroke-dasharray:none;stroke-opacity:1"
         d="M 31.224722,107.67415 H 56.918495"
         id="path15522" /><path
         style="fill:none;fill-opacity:1;stroke:#000000;stroke-width:0.4;stroke-dasharray:none;stroke-opacity:1"
         d="M 51.027989,51.198548 H 25.181505 v 50.750392 l 5.903515,5.90351 H 56.931504 V 56.878821 Z"
         id="path25126" /><path
         style="fill:none;fill-opacity:1;stroke:#000000;stroke-width:0.4;stroke-dasharray:none;stroke-opacity:1"
         d="M 56.963664,82.408796 H 31.122042 l -5.869907,-5.869908"
         id="path25348" /><path
         style="fill:none;fill-opacity:1;stroke:#000000;stroke-width:0.460254;stroke-dasharray:none;stroke-opacity:1"
         d="M 31.145428,107.75931 V 56.8957"
         id="path25350"
         sodipodi:nodetypes="cc" /><path
         style="fill:none;fill-opacity:1;stroke:#000000;stroke-width:0.4;stroke-dasharray:none;stroke-opacity:1"
         d="M 51.0839,101.95406 V 51.231745"
         id="path25352"
         sodipodi:nodetypes="cc" /><path
         style="fill:none;fill-opacity:1;stroke:#000000;stroke-width:0.4;stroke-dasharray:none;stroke-opacity:1"
         d="m 25.181977,51.164988 6.010223,5.788056 25.724691,0.01169"
         id="path25356" /><path
         style="fill:none;fill-opacity:1;stroke:#000000;stroke-width:0.4;stroke-dasharray:none;stroke-opacity:1"
         d="m 25.154835,76.611569 h 25.841622 l 5.869907,5.869908"
         id="path25348-3" /><path
         style="fill:none;fill-opacity:1;stroke:#000000;stroke-width:0.4;stroke-dasharray:none;stroke-opacity:1"
         d="m 25.251583,101.94208 h 25.841622 l 5.869907,5.86991"
         id="path25348-3-6" /><rect
         style="fill:#000000;fill-opacity:0.202439;stroke:#000000;stroke-width:0.3;stroke-opacity:1"
         id="rect6496"
         width="25.90436"
         height="50.717319"
         x="25.148432"
         y="51.182011" /><rect
         style="fill:#000000;fill-opacity:0.202439;stroke:#000000;stroke-width:0.3;stroke-opacity:1"
         id="rect6496-1"
         width="25.90436"
         height="50.717319"
         x="27.8517"
         y="53.846241" /><rect
         style="fill:#000000;fill-opacity:0.202439;stroke:#000000;stroke-width:0.164202;stroke-opacity:1"
         id="rect6496-7"
         width="7.7362218"
         height="50.876732"
         x="69.74202"
         y="3.8110704"
         transform="matrix(0.73305892,0.68016514,0,1,0,0)" /><rect
         style="fill:#000000;fill-opacity:0.202439;stroke:#000000;stroke-width:0.448558;stroke-dasharray:none;stroke-opacity:1"
         id="rect12747"
         width="25.701035"
         height="8.0358963"
         x="-76.84684"
         y="144.42372"
         transform="matrix(1,0,0.70781216,0.7064007,0,0)" /><rect
         style="fill:#000000;fill-opacity:0.202439;stroke:#000000;stroke-width:0.167895;stroke-opacity:1"
         id="rect6496-7-5"
         width="8.0880384"
         height="50.876732"
         x="54.683449"
         y="12.011244"
         transform="matrix(0.701172,0.71299216,0,1,0,0)" /><rect
         style="fill:#000000;fill-opacity:0.202439;stroke:#000000;stroke-width:0.167895;stroke-opacity:1"
         id="rect6496-7-5-3"
         width="8.0880384"
         height="50.876732"
         x="36.139267"
         y="25.466959"
         transform="matrix(0.701172,0.71299216,0,1,0,0)" /><rect
         style="fill:#000000;fill-opacity:0.202439;stroke:#000000;stroke-width:0.448558;stroke-dasharray:none;stroke-opacity:1"
         id="rect12747-5"
         width="25.701035"
         height="8.0358963"
         x="-51.458847"
         y="108.42574"
         transform="matrix(1,0,0.70781216,0.7064007,0,0)" /><rect
         style="fill:#000000;fill-opacity:0.202439;stroke:#000000;stroke-width:0.459621;stroke-dasharray:none;stroke-opacity:1"
         id="rect12747-5-6"
         width="25.731237"
         height="8.2766781"
         x="-27.8916"
         y="73.857109"
         transform="matrix(1,0,0.72084498,0.69309633,0,0)" /><rect
         style="fill:#000000;fill-opacity:0.202439;stroke:#000000;stroke-width:0.453277;stroke-dasharray:none;stroke-opacity:1"
         id="rect12747-5-6-2"
         width="25.701035"
         height="8.2059183"
         x="-41.483147"
         y="92.402931"
         transform="matrix(1,0,0.72212312,0.69176455,0,0)" /><rect
         style="fill:#000000;fill-opacity:0.202439;stroke:#000000;stroke-width:0.453277;stroke-dasharray:none;stroke-opacity:1"
         id="rect12747-5-6-2-9"
         width="25.701035"
         height="8.2059183"
         x="-68.478287"
         y="129.69435"
         transform="matrix(1,0,0.72212312,0.69176455,0,0)" /><circle
         style="fill:#ff0000;fill-opacity:1;stroke:#000000;stroke-width:0.177;stroke-dasharray:none;stroke-opacity:1"
         id="path13070"
         cx="31.184238"
         cy="107.75323"
         r="0.66145831" /><circle
         style="fill:#ff0000;fill-opacity:1;stroke:#000000;stroke-width:0.177;stroke-dasharray:none;stroke-opacity:1"
         id="path13070-2"
         cx="25.198042"
         cy="101.98201"
         r="0.66145831" /><circle
         style="fill:#ff0000;fill-opacity:1;stroke:#000000;stroke-width:0.177;stroke-dasharray:none;stroke-opacity:1"
         id="path13070-7"
         cx="56.881897"
         cy="107.80284"
         r="0.66145831" /><circle
         style="fill:#ff0000;fill-opacity:1;stroke:#000000;stroke-width:0.177;stroke-dasharray:none;stroke-opacity:1"
         id="path13070-9"
         cx="57.063793"
         cy="82.369766"
         r="0.66145831" /><circle
         style="fill:#ff0000;fill-opacity:1;stroke:#000000;stroke-width:0.177;stroke-dasharray:none;stroke-opacity:1"
         id="path13070-26"
         cx="31.233849"
         cy="82.468987"
         r="0.66145831" /><circle
         style="fill:#ff0000;fill-opacity:1;stroke:#000000;stroke-width:0.177;stroke-dasharray:none;stroke-opacity:1"
         id="path13070-8"
         cx="57.129944"
         cy="57.168209"
         r="0.66145831" /><circle
         style="fill:#ff0000;fill-opacity:1;stroke:#000000;stroke-width:0.177;stroke-dasharray:none;stroke-opacity:1"
         id="path13070-79"
         cx="51.176819"
         cy="51.347378"
         r="0.66145831" /><circle
         style="fill:#ff0000;fill-opacity:1;stroke:#000000;stroke-width:0.177;stroke-dasharray:none;stroke-opacity:1"
         id="path13070-20"
         cx="25.24765"
         cy="51.281231"
         r="0.66145831" /><circle
         style="fill:#ff0000;fill-opacity:1;stroke:#000000;stroke-width:0.177;stroke-dasharray:none;stroke-opacity:1"
         id="path13070-23"
         cx="31.266922"
         cy="56.969772"
         r="0.66145831" /></g></g></svg>
